# This file uses centimeters as units for non-parametric coordinates.

mtllib Rock4Redo_Hite.mtl
g default
v 7.890361 0.294589 -4.880657
v -9.020862 -1.351665 4.880657
v 5.721662 -2.386460 2.823927
v 8.382942 -0.702385 -4.880657
v 10.082559 1.969217 -2.362053
v 9.255859 1.258012 4.463144
v 9.454123 -2.386460 0.866132
v -9.669220 -2.230543 4.152246
v -9.236569 -2.386460 4.028859
v 0.758935 -2.386460 -3.214550
v -5.335591 -1.070679 -4.880657
v -9.750949 -2.386460 2.397952
v -10.734651 -1.642492 0.558459
v -10.292159 -2.236038 2.124429
v -10.552023 -1.241118 -2.436681
v -9.849934 -1.669116 -2.846480
v 7.962642 1.299435 -4.406270
v 6.406520 2.386460 -2.454179
v -0.311630 2.386460 -2.748671
v 7.765629 0.803805 -4.774846
v -6.435955 -1.146418 -4.880657
v -2.288328 -1.728570 -4.047603
v -10.021555 -2.311249 2.261191
v -4.496007 -2.386460 -0.408299
v -6.150994 -1.968704 -1.713584
v -10.071047 -1.952575 -0.361026
v -8.693127 -1.445638 -3.863569
v 6.157208 2.386460 2.771529
v -3.713158 2.386460 2.104915
v 6.475154 2.139346 3.360199
v -5.258236 2.209074 2.407717
v -6.568662 2.041357 2.479362
v -7.475865 1.784911 2.671310
v -7.964971 1.277350 -3.719595
v -9.535759 0.661928 -2.451779
v -8.286869 1.185738 -3.662378
v -8.787309 1.079358 -2.939566
v -7.603551 -0.287777 -4.880657
v -8.668629 -0.076666 -4.387328
v -7.169681 -1.196922 -4.880657
v -8.140806 -1.338937 -4.349181
v 10.199952 -0.675673 -3.354105
v 10.214665 1.810494 -2.317275
v 8.976239 0.825689 4.880657
v 9.211415 0.937074 4.785346
v 9.954905 0.483124 4.343100
v 9.505097 -1.159441 4.275463
v -10.734651 -1.355397 2.563283
v -10.645431 -2.069216 2.604067
v -10.734650 -1.973353 2.422493
v -10.118763 -2.119327 3.793401
v -5.954876 1.478528 -4.430821
v 7.844657 1.234975 -4.531244
v 3.469004 0.725274 -4.880657
v 5.950737 0.819316 -4.809177
v -5.972018 0.786133 -4.880656
v -4.759804 1.648330 -4.315518
v 10.443913 1.519400 2.917977
v 10.373127 1.726989 2.304662
v 10.734651 0.674036 -1.840636
v 10.434744 1.551153 -2.025470
v 10.440367 0.506046 3.782995
v 10.391590 -1.183493 3.228819
v 10.640196 0.945193 3.187304
v 10.734650 0.669502 2.692083
v 7.690600 -1.650771 4.680322
v 6.955352 -1.559075 4.880657
v 8.964035 -1.278634 4.518704
v 8.480179 -0.559131 4.880657
v -9.304319 0.766321 3.567110
v -9.464604 0.677594 3.504579
v -9.089659 -1.063976 4.880657
v -8.885583 -0.497626 4.880657
v -10.136873 -1.079951 3.988920
v -10.314429 -0.608676 3.691484
v -9.095836 -0.264947 4.628840
v -10.093556 -0.278031 3.778588
v -10.176551 -0.502546 -3.011993
v -8.896698 0.036775 -4.244786
v -9.862108 0.102598 -3.105575
v -8.987843 0.471752 -3.947363
v 8.807411 -0.924193 -4.618020
v 7.847347 -2.386460 -2.675775
v 7.385364 -2.386460 -3.014200
v 9.424471 -0.952400 -4.114963
v 9.894350 2.207853 -1.891589
v 9.883155 2.285226 0.836698
v 9.412312 2.386460 -1.632707
v 9.588166 2.386460 0.695235
v 10.470538 -1.848623 1.263054
v 10.734651 0.012774 -2.109345
v 10.401446 -0.654674 -2.981923
v 10.734651 -1.278910 1.830651
v 10.670765 -1.510889 1.980604
vt 0.810103 0.432293
vt 0.753390 0.793938
vt 0.834413 0.402139
vt 0.797725 0.814836
vt 0.823740 0.495976
vt 0.868010 0.773377
vt 0.877431 0.432673
vt 0.830244 0.526397
vt 0.883124 0.791330
vt 0.912864 0.439648
vt 0.866033 0.013277
vt 0.891388 0.831828
vt 0.902459 0.517914
vt 0.908817 0.507833
vt 0.664176 0.969829
vt 0.007926 0.773073
vt 0.890912 0.557117
vt 0.933633 0.492539
vt 0.917282 0.014177
vt 0.090660 0.687551
vt 0.945552 0.880309
vt 0.838645 0.565133
vt 0.955173 0.582420
vt 0.971383 0.445165
vt 0.923276 0.048288
vt 0.865393 0.000000
vt 0.950431 0.902198
vt 0.976006 0.489107
vt 0.735270 0.028420
vt 0.969334 0.039098
vt 0.934967 0.010696
vt 0.909996 0.107705
vt 0.957601 0.075622
vt 0.969575 0.067838
vt 0.981727 0.496767
vt 0.587125 0.000000
vt 0.779092 0.034551
vt 0.968170 0.048760
vt 0.937860 0.004432
vt 0.744242 0.273268
vt 0.823868 0.037638
vt 0.874889 0.048812
vt 0.786543 0.269851
vt 0.953225 0.217877
vt 0.879018 0.414536
vt 0.660816 0.245379
vt 0.651883 0.326428
vt 0.915896 0.432082
vt 0.376994 0.939105
vt 0.593365 0.290677
vt 0.454288 0.767996
vt 0.378704 0.974990
vt 0.841970 0.400971
vt 0.497197 0.920323
vt 0.954283 0.280570
vt 0.486833 0.955082
vt 0.370774 0.985859
vt 0.497495 0.776534
vt 0.952352 0.268623
vt 0.485430 0.974060
vt 0.417491 1.000000
vt 0.837150 0.287599
vt 0.515157 0.936115
vt 0.515210 0.991257
vt 0.552643 0.928102
vt 0.554788 0.770806
vt 0.932532 0.243827
vt 0.536390 0.981214
vt 0.507935 0.996062
vt 0.566172 0.908606
vt 0.571973 0.761557
vt 0.834975 0.275292
vt 0.154232 0.527838
vt 0.045180 0.063206
vt 0.603153 0.861950
vt 0.582477 0.760152
vt 0.931357 0.225701
vt 0.186234 0.530973
vt 0.058270 0.063601
vt 0.217059 0.543297
vt 0.091323 0.528934
vt 0.213144 0.539004
vt 0.610966 0.857404
vt 0.598229 0.775147
vt 0.611828 0.783311
vt 0.025172 0.811013
vt 0.015804 0.776738
vt 0.356958 0.789343
vt 0.134582 0.718899
vt 0.402039 0.839135
vt 0.255868 0.662078
vt 0.442452 0.749592
vt 0.174224 0.636415
vt 0.412047 0.675216
vt 0.093314 0.609939
vt 0.402313 0.668014
vt 0.068636 0.612430
vt 0.052165 0.614076
vt 0.033575 0.627558
vt 0.023851 0.639143
vt 0.003343 0.663243
vt 0.003117 0.716132
vt 0.000000 0.769431
vt 0.340766 0.565198
vt 0.650248 0.545938
vt 0.442900 0.715572
vt 0.658854 0.521970
vt 0.652869 0.705730
vt 0.291353 0.551438
vt 0.756092 0.610985
vt 0.717063 0.794684
vt 0.747433 0.682670
vt 0.778168 0.716545
vt 0.714236 0.800394
vt 0.767082 0.695642
vt 0.497515 0.120500
vt 0.567901 0.153990
vt 0.406407 0.126181
vt 0.564041 0.121394
vt 0.082576 0.239961
vt 0.276016 0.000000
vt 0.585185 0.217435
vt 0.060401 0.121954
vt 0.105207 0.064507
vt 0.571754 0.093089
vt 0.195643 0.288661
vt 0.000000 0.190095
vt 0.308718 0.337363
vt 0.042231 0.244725
vt 0.061364 0.075810
vt 0.601191 0.233671
vt 0.015330 0.247898
vt 0.551850 0.339402
vt 0.753754 0.404546
vt 0.027601 0.369333
vt 0.685868 0.363186
vt 0.030255 0.404311
vt 0.716947 0.357716
vt 0.777398 0.372692
vt 0.020621 0.415073
vt 0.023748 0.381092
vt 0.769968 0.461829
vt 0.065227 0.508742
vt 0.778535 0.466913
vt 0.000000 0.462350
vt 0.648888 0.522641
vt 0.153672 0.527839
vt 0.776544 0.481668
vt 0.100445 0.520357
vt 0.133740 0.621758
vt 0.092274 0.593979
vt 0.175133 0.630436
vt 0.074615 0.555942
vt 0.077007 0.538347
vt 0.230321 0.624828
vt 0.246763 0.615669
vt 0.091149 0.582202
vt 0.256832 0.613931
vt 0.639774 0.228658
vt 0.355308 0.899274
vt 0.681507 0.277512
vt 0.683280 0.307630
vt 0.675886 0.316272
vt 0.606584 0.222316
vt 0.857200 0.002644
vt 0.857040 0.016130
vt 0.849187 0.005403
vt 0.909535 0.064013
vt 0.915057 0.075124
vt 0.940174 0.965891
vt 0.858414 0.037876
vt 0.913902 0.110734
vt 0.021950 0.323335
vt 0.943321 0.972118
vt 0.947581 0.409994
vt 0.632449 0.933327
vt 0.635240 0.893217
vt 0.660014 0.843882
vt 0.638846 0.814647
vt 0.995444 0.560406
vt 0.680441 0.247784
vt 0.664839 0.245982
vt 0.643630 0.221448
vt 0.582706 0.205682
vt 0.056192 0.000000
vt 0.061404 0.003068
vt 0.026414 0.003135
vt 0.015238 0.006267
vt 0.000000 0.032744
vt 0.901022 0.436909
vt 0.370345 0.894233
vt 0.997566 0.307648
vn 0.020277 0.208164 -0.977884
vn 0.020277 0.208164 -0.977884
vn 0.020277 0.208164 -0.977884
vn 0.000051 0.014310 0.999898
vn 0.000000 0.000000 1.000000
vn 0.000000 0.000000 1.000000
vn -0.002159 -0.636524 0.771254
vn -0.008237 -0.634488 0.772888
vn 0.005607 -0.732791 0.680431
vn 0.027616 -0.938991 0.342832
vn 0.021287 -0.907040 0.420507
vn 0.000000 -1.000000 0.000000
vn 0.000000 -1.000000 0.000000
vn 0.000000 -1.000000 0.000000
vn 0.000000 -1.000000 -0.000000
vn 0.000000 -1.000000 0.000000
vn 0.000000 -1.000000 0.000000
vn 0.000000 -1.000000 0.000000
vn 0.000000 -1.000000 0.000000
vn -0.136656 -0.956996 -0.255899
vn -0.114113 -0.971270 -0.208837
vn -0.102164 -0.977617 -0.183925
vn -0.102001 -0.977698 -0.183584
vn -0.574688 -0.805778 -0.143023
vn -0.574688 -0.805778 -0.143023
vn -0.574688 -0.805778 -0.143023
vn -0.574688 -0.805778 -0.143023
vn -0.574689 -0.805777 -0.143023
vn -0.574695 -0.805772 -0.143028
vn -0.574690 -0.805777 -0.143023
vn 0.020766 0.880432 -0.473717
vn 0.020766 0.880432 -0.473717
vn 0.013544 0.867018 -0.498093
vn 0.112919 0.903625 -0.413172
vn 0.112919 0.903625 -0.413172
vn 0.112919 0.903624 -0.413175
vn 0.112919 0.903624 -0.413173
vn 0.253973 -0.837293 0.484189
vn 0.222122 -0.927787 0.299788
vn 0.182439 -0.957060 0.225282
vn 0.205938 -0.953352 0.220701
vn 0.330698 -0.888177 0.319032
vn 0.318459 -0.898040 0.303494
vn 0.308744 -0.908708 0.280938
vn 0.298576 -0.931513 0.207691
vn 0.179574 0.937924 0.296735
vn 0.179574 0.937924 0.296735
vn 0.179574 0.937924 0.296735
vn 0.179574 0.937924 0.296735
vn 0.179575 0.937923 0.296738
vn 0.179574 0.937924 0.296735
vn 0.179574 0.937924 0.296736
vn -0.151018 -0.961423 -0.229913
vn -0.092432 -0.981428 -0.168093
vn -0.046415 -0.991789 -0.119164
vn -0.044488 -0.992122 -0.117108
vn -0.044488 -0.992122 -0.117107
vn -0.027307 -0.984844 -0.171279
vn -0.038638 -0.990004 -0.135646
vn -0.009896 -0.974235 -0.225318
vn 0.066374 -0.964305 -0.256340
vn 0.015048 -0.970959 -0.238774
vn 0.042576 -0.967451 -0.249452
vn 0.006877 -0.971410 -0.237307
vn -0.009896 -0.974235 -0.225319
vn 0.066374 -0.964305 -0.256340
vn -0.062344 -0.955873 -0.287089
vn -0.108915 -0.948637 -0.297028
vn -0.122317 -0.946138 -0.299770
vn -0.122317 -0.946138 -0.299770
vn -0.114609 -0.958558 -0.260828
vn -0.106472 -0.969605 -0.220297
vn -0.099606 -0.977389 -0.186521
vn -0.026965 0.916437 0.399269
vn -0.026965 0.916436 0.399271
vn -0.026965 0.916437 0.399270
vn -0.026965 0.916436 0.399271
vn -0.131363 0.987050 -0.092062
vn -0.131363 0.987050 -0.092062
vn -0.131362 0.987050 -0.092063
vn -0.131363 0.987050 -0.092062
vn -0.131362 0.987050 -0.092063
vn -0.131363 0.987050 -0.092062
vn -0.131363 0.987050 -0.092063
vn -0.282268 0.957788 -0.054464
vn -0.282268 0.957788 -0.054464
vn -0.282268 0.957788 -0.054465
vn -0.282266 0.957789 -0.054465
vn -0.282267 0.957789 -0.054465
vn -0.485347 0.874314 0.003499
vn -0.485347 0.874315 0.003499
vn -0.485347 0.874315 0.003498
vn -0.485340 0.874318 0.003498
vn -0.485346 0.874315 0.003498
vn -0.610863 0.725899 -0.316098
vn -0.610863 0.725898 -0.316098
vn -0.610863 0.725899 -0.316098
vn -0.610863 0.725899 -0.316098
vn -0.610862 0.725900 -0.316097
vn -0.445048 -0.212390 -0.869955
vn -0.445049 -0.212390 -0.869955
vn -0.445049 -0.212390 -0.869955
vn -0.445049 -0.212390 -0.869955
vn 0.858215 0.193235 -0.475529
vn 0.858215 0.193235 -0.475529
vn 0.858214 0.193236 -0.475529
vn 0.858214 0.193235 -0.475529
vn 0.858216 0.193233 -0.475528
vn 0.858213 0.193239 -0.475529
vn 0.433308 -0.155213 0.887780
vn 0.433306 -0.155215 0.887781
vn 0.433305 -0.155215 0.887781
vn 0.433305 -0.155215 0.887781
vn 0.433304 -0.155217 0.887781
vn 0.433305 -0.155216 0.887781
vn -0.312399 -0.944828 0.098527
vn -0.312397 -0.944828 0.098528
vn -0.312397 -0.944828 0.098528
vn -0.312395 -0.944829 0.098528
vn -0.312396 -0.944828 0.098528
vn -0.312397 -0.944828 0.098528
vn -0.312398 -0.944828 0.098528
vn -1.000000 0.000000 0.000000
vn -1.000000 0.000000 0.000000
vn -1.000000 0.000000 0.000000
vn -0.911971 -0.091136 0.400003
vn -0.911972 -0.091135 0.400003
vn -0.911971 -0.091136 0.400003
vn -0.911972 -0.091134 0.400003
vn -0.911971 -0.091132 0.400004
vn -0.911973 -0.091136 0.399998
vn -0.096565 0.574381 -0.812873
vn -0.115749 0.504590 -0.855565
vn 0.112919 0.903625 -0.413172
vn 0.020277 0.208164 -0.977884
vn -0.000000 0.000001 -1.000000
vn -0.000000 0.000001 -1.000000
vn -0.000000 0.000001 -1.000000
vn -0.000000 0.000000 -1.000000
vn 0.000000 0.000000 -1.000000
vn 0.000000 0.000000 -1.000000
vn -0.000000 0.000000 -1.000000
vn -0.000000 0.000001 -1.000000
vn -0.298819 0.453979 -0.839411
vn -0.298819 0.453979 -0.839411
vn -0.306390 0.539203 -0.784465
vn -0.301805 0.477933 -0.824920
vn -0.299354 0.543414 -0.784276
vn -0.295228 0.587303 -0.753602
vn -0.321661 0.537477 -0.779521
vn -0.330714 0.519888 -0.787619
vn 0.610678 0.301719 -0.732146
vn 0.610675 0.301721 -0.732148
vn 0.610676 0.301720 -0.732148
vn 0.610676 0.301720 -0.732148
vn 0.610676 0.301720 -0.732147
vn 0.610675 0.301718 -0.732149
vn 0.610675 0.301719 -0.732148
vn 0.610675 0.301721 -0.732148
vn 0.610675 0.301720 -0.732148
vn 0.610674 0.301719 -0.732149
vn 0.019767 0.775134 -0.631487
vn 0.003511 0.544735 -0.838601
vn 0.036693 0.738984 -0.672724
vn 0.003511 0.544736 -0.838601
vn 0.049997 0.829299 -0.556564
vn 0.017808 0.821160 -0.570420
vn 0.005391 0.803762 -0.594927
vn 0.740242 -0.228745 0.632232
vn 0.740242 -0.228745 0.632232
vn 0.740242 -0.228745 0.632232
vn 0.740242 -0.228745 0.632232
vn 0.647047 0.493705 0.581022
vn 0.647046 0.493706 0.581022
vn 0.647046 0.493706 0.581021
vn 0.647046 0.493707 0.581021
vn 0.647046 0.493705 0.581023
vn 0.647045 0.493709 0.581020
vn 0.946195 0.323596 0.000324
vn 0.946197 0.323591 0.000323
vn 0.946195 0.323596 0.000324
vn 0.946196 0.323593 0.000324
vn 0.946196 0.323594 0.000324
vn 0.946196 0.323595 0.000324
vn 0.963805 -0.107804 0.243842
vn 0.963804 -0.107806 0.243842
vn 0.963805 -0.107806 0.243841
vn 0.963805 -0.107805 0.243840
vn 0.963805 -0.107806 0.243840
vn 0.963805 -0.107806 0.243840
vn 0.211263 -0.322158 0.922812
vn 0.211263 -0.322158 0.922812
vn 0.211263 -0.322158 0.922812
vn 0.211263 -0.322156 0.922813
vn -0.037374 0.408746 0.911883
vn -0.052685 0.711136 0.701077
vn -0.049607 0.646162 0.761586
vn -0.052684 0.711136 0.701078
vn -0.014240 0.005101 0.999886
vn -0.052685 0.711132 0.701082
vn -0.052686 0.711135 0.701079
vn -0.052686 0.711135 0.701078
vn -0.052685 0.711136 0.701077
vn -0.052685 0.711134 0.701080
vn 0.002605 0.735546 0.677470
vn 0.000862 0.243318 0.969946
vn -0.012011 -0.925163 0.379380
vn 0.000000 0.000000 1.000000
vn -0.639351 -0.152894 0.753561
vn -0.639350 -0.152893 0.753561
vn -0.639350 -0.152894 0.753561
vn -0.639350 -0.152893 0.753561
vn -0.639350 -0.152893 0.753561
vn -0.548653 0.543305 0.635452
vn -0.548653 0.543305 0.635452
vn -0.548653 0.543306 0.635451
vn -0.548653 0.543306 0.635451
vn -0.633238 0.228180 0.739556
vn -0.633238 0.228179 0.739557
vn -0.633238 0.228179 0.739556
vn -0.633238 0.228179 0.739557
vn -0.633238 0.228179 0.739557
vn -0.633238 0.228180 0.739556
vn -0.834164 0.551451 0.008515
vn -0.872725 0.488211 -0.001291
vn -0.833589 0.552317 0.008697
vn -0.858325 0.513099 -0.002670
vn -0.885429 0.464102 -0.024982
vn -0.910206 0.411524 -0.046609
vn -0.877134 0.479843 0.019659
vn -0.887268 0.461175 0.008551
vn -0.889153 0.457555 0.007100
vn -0.604248 -0.275270 -0.747737
vn -0.604248 -0.275267 -0.747738
vn -0.604249 -0.275266 -0.747738
vn -0.604249 -0.275266 -0.747738
vn -0.604249 -0.275265 -0.747738
vn -0.604249 -0.275270 -0.747737
vn -0.604249 -0.275265 -0.747738
vn -0.724584 0.279055 -0.630163
vn -0.724584 0.279057 -0.630163
vn -0.724584 0.279058 -0.630162
vn -0.724584 0.279061 -0.630162
vn 0.020071 -0.747612 -0.663832
vn 0.020071 -0.747612 -0.663832
vn 0.020071 -0.747612 -0.663832
vn 0.020071 -0.747612 -0.663832
vn 0.020071 -0.747613 -0.663832
vn 0.020071 -0.747612 -0.663832
vn 0.334018 -0.824939 -0.455968
vn 0.334018 -0.824939 -0.455968
vn 0.334018 -0.824939 -0.455968
vn 0.334018 -0.824939 -0.455968
vn 0.000000 1.000000 0.000000
vn 0.000000 1.000000 0.000000
vn 0.000000 1.000000 0.000000
vn 0.000000 1.000000 0.000000
vn 0.000000 1.000000 0.000000
vn 0.000000 1.000000 0.000000
vn 0.770591 0.637155 -0.014908
vn 0.770591 0.637155 -0.014908
vn 0.770591 0.637155 -0.014908
vn 0.770591 0.637155 -0.014908
vn 0.770593 0.637154 -0.014908
vn 0.770595 0.637151 -0.014907
vn 0.335341 0.941756 -0.025332
vn 0.335341 0.941756 -0.025332
vn 0.335340 0.941757 -0.025332
vn 0.335340 0.941757 -0.025332
vn 1.000000 0.000002 0.000000
vn 1.000000 0.000000 0.000000
vn 1.000000 0.000001 0.000000
vn 1.000000 0.000000 0.000000
vn 0.525304 -0.816864 -0.238302
vn 0.525304 -0.816864 -0.238303
vn 0.525304 -0.816864 -0.238303
vn 0.525304 -0.816864 -0.238303
vn 0.525304 -0.816864 -0.238303
vn 0.525304 -0.816864 -0.238303
vn 0.938548 -0.327974 -0.107523
vn 0.938548 -0.327974 -0.107523
vn 0.938547 -0.327977 -0.107523
vn 0.938547 -0.327976 -0.107525
vn 0.938546 -0.327978 -0.107523
s 1
g pCube1
usemtl lambert2SG
f 55/116/1 1/117/2 54/118/3
s 2
f 69/134/4 2/135/5 67/136/6
s 3
f 2/30/7 8/31/8 9/39/9
f 3/88/10 66/90/11 9/86/9
f 9/173/9 66/138/11 2/135/7
s 4
f 9/86/12 12/87/13 3/88/14
f 12/87/13 24/89/15 3/88/14
f 24/89/15 10/91/16 3/88/14
f 3/88/14 10/91/16 7/92/17
f 7/92/17 10/91/16 83/94/18
f 10/91/16 84/96/19 83/94/18
s 5
f 12/87/20 23/16/21 24/89/22
f 24/89/22 23/16/21 25/20/23
s 6
f 16/179/24 26/2/25 15/178/26
f 15/178/26 26/2/25 13/4/27
f 26/2/25 14/6/28 13/4/27
f 49/11/29 50/166/30 14/167/28
f 13/4/27 14/6/28 50/9/30
s 7
f 18/108/31 17/111/32 19/106/33
s 8
f 5/113/34 18/108/35 86/115/36
f 18/108/35 88/112/37 86/115/36
s 9
f 7/164/38 90/159/39 3/50/40
f 3/50/40 90/159/39 66/47/41
f 90/159/39 94/46/42 66/47/41
f 94/46/42 63/161/43 66/47/41
f 63/161/43 47/162/44 66/47/41
f 47/162/44 68/163/45 66/47/41
s 10
f 6/189/46 58/188/47 30/74/48
f 58/188/47 59/187/49 30/74/48
f 89/186/50 28/79/51 87/185/52
f 87/185/52 28/79/51 59/187/49
f 59/187/49 28/79/51 30/74/48
s 12
f 23/16/53 14/103/54 25/20/55
f 14/103/54 26/102/56 25/20/55
s 13
f 26/102/57 16/101/58 25/20/59
f 25/20/59 16/101/58 27/100/60
s 14
f 21/97/61 25/20/62 40/98/63
f 40/98/63 25/20/62 41/99/64
f 27/100/65 41/99/64 25/20/62
s 15
f 21/97/66 11/95/67 25/20/68
f 11/95/67 22/93/69 25/20/68
s 16
f 22/93/70 10/91/71 25/20/72
f 25/20/72 10/91/71 24/89/73
s 17
f 28/105/74 29/104/75 30/107/76
f 30/107/76 29/104/75 31/109/77
s 18
f 32/37/78 31/41/79 34/181/80
f 31/41/79 29/42/81 34/181/80
f 34/181/80 29/42/81 52/40/82
f 52/40/82 29/42/81 57/43/83
f 29/42/81 19/44/84 57/43/83
s 19
f 33/29/85 32/37/86 37/183/87
f 34/181/88 36/182/89 32/37/86
f 32/37/86 36/182/89 37/183/87
s 20
f 37/183/90 35/184/91 33/29/92
f 71/170/93 70/174/94 35/15/91
f 35/184/91 70/36/94 33/29/92
s 21
f 80/10/95 35/175/96 81/18/97
f 35/175/96 37/24/98 81/18/97
f 37/24/98 36/28/99 81/18/97
s 22
f 40/22/100 41/8/101 38/17/102
f 38/17/102 41/8/101 39/13/103
s 23
f 43/156/104 61/155/105 42/157/106
f 61/155/105 60/152/107 42/157/106
f 60/152/107 91/150/108 42/157/106
f 91/150/108 92/151/109 42/157/106
s 24
f 45/64/110 44/69/111 46/60/112
f 44/69/111 69/61/113 46/60/112
f 68/57/114 47/52/115 69/61/113
f 69/61/113 47/52/115 46/60/112
s 25
f 14/167/116 23/165/117 49/11/118
f 9/39/119 8/31/120 12/26/121
f 8/31/120 51/19/122 12/26/121
f 12/26/121 51/19/122 23/165/117
f 51/19/122 49/11/118 23/165/117
s off
f 50/9/123 48/12/124 13/4/125
s 27
f 75/168/126 48/171/127 74/25/128
f 74/25/128 48/171/127 51/19/129
f 51/19/129 48/171/127 49/11/130
f 48/171/127 50/166/131 49/11/130
s 7
f 19/121/33 53/125/132 20/119/133
f 53/114/132 19/106/33 17/111/32
s 8
f 5/113/34 17/111/134 18/108/35
s 1
f 1/117/2 55/116/1 20/119/135
s 28
f 40/132/136 38/127/137 21/129/138
f 21/129/138 38/127/137 11/120/139
f 4/122/140 11/120/139 1/117/141
f 1/117/141 11/120/139 54/118/142
f 54/118/142 11/120/139 56/123/143
f 38/127/137 56/123/143 11/120/139
s 30
f 38/17/144 39/13/145 56/23/146
f 39/13/145 79/14/147 56/23/146
f 79/14/147 81/18/148 56/23/146
f 81/18/148 36/28/149 56/23/146
f 36/28/149 34/35/150 56/23/146
f 52/180/151 56/23/146 34/35/150
s 31
f 43/156/152 42/157/153 5/158/154
f 42/157/153 17/80/155 5/158/154
f 17/80/155 42/157/153 53/82/156
f 53/82/156 42/157/153 20/78/157
f 20/78/157 42/157/153 1/73/158
f 42/157/153 85/153/159 1/73/158
f 85/153/159 82/154/160 1/73/158
f 82/154/160 4/81/161 1/73/158
s 32
f 54/118/162 56/123/163 57/124/164
f 56/123/163 52/130/165 57/124/164
f 57/124/164 19/121/166 54/118/162
f 19/121/166 20/119/167 55/116/168
f 19/121/166 55/116/168 54/118/162
s 33
f 46/60/169 47/52/170 62/56/171
f 62/56/171 47/52/170 63/49/172
s 34
f 58/65/173 6/68/174 64/63/175
f 64/63/175 6/68/174 62/56/176
f 6/68/174 45/64/177 62/56/176
f 62/56/176 45/64/177 46/60/178
s 35
f 61/66/179 59/70/180 60/58/181
f 59/70/180 58/65/182 60/58/181
f 58/65/182 64/63/183 60/58/181
f 64/63/183 65/54/184 60/58/181
s 36
f 64/63/185 62/56/186 65/54/187
f 94/160/188 93/191/189 63/49/190
f 93/191/189 65/54/187 63/49/190
f 62/56/186 63/49/190 65/54/187
s 38
f 69/134/191 67/136/192 68/139/193
f 68/139/193 67/136/192 66/138/194
s 39
f 44/142/195 33/143/196 76/140/197
f 70/145/198 76/140/197 33/143/196
f 69/134/199 44/142/195 76/140/197
f 32/149/200 33/143/196 31/147/201
f 33/143/196 30/146/202 31/147/201
f 33/143/196 44/142/195 45/144/203
f 30/146/202 33/143/196 45/144/203
f 45/144/203 6/148/204 30/146/202
s 2
f 69/134/4 76/140/205 73/137/206
s 3
f 2/135/7 66/138/11 67/136/207
s 2
f 2/135/5 69/134/4 73/137/206
f 73/137/206 72/141/208 2/135/5
s 41
f 8/31/209 2/30/210 51/19/211
f 72/38/212 74/25/213 2/30/210
f 74/25/213 51/19/211 2/30/210
s 42
f 70/172/214 71/32/215 76/33/216
f 77/169/217 76/33/216 71/32/215
s 43
f 72/38/218 73/34/219 74/25/220
f 74/25/220 73/34/219 75/168/221
f 73/34/219 76/33/222 75/168/221
f 76/33/222 77/169/223 75/168/221
s 44
f 71/170/224 35/15/225 77/27/226
f 77/27/226 35/15/225 75/21/227
f 75/21/227 35/15/225 48/12/228
f 48/12/228 35/15/225 13/4/229
f 35/15/225 80/176/230 13/4/229
f 80/176/230 78/177/231 13/4/229
f 78/177/231 15/178/232 13/4/229
s 45
f 79/14/233 39/13/234 78/7/235
f 39/13/234 41/8/236 78/7/235
f 78/7/235 41/8/236 15/3/237
f 41/8/236 27/5/238 15/3/237
f 27/5/238 16/1/239 15/3/237
s 46
f 78/7/240 80/10/241 79/14/242
f 79/14/242 80/10/241 81/18/243
s 47
f 11/120/244 4/122/245 22/126/246
f 22/126/246 4/122/245 10/128/247
f 4/122/245 82/131/248 10/128/247
f 82/131/248 84/133/249 10/128/247
s 48
f 82/77/250 85/67/251 84/72/252
f 84/72/252 85/67/251 83/62/253
s 49
f 29/104/254 28/105/255 19/106/256
f 19/106/256 28/105/255 18/108/257
f 28/105/255 89/110/258 18/108/257
f 88/112/259 18/108/257 89/110/258
s 50
f 59/70/260 61/66/261 87/75/262
f 61/66/261 43/71/263 87/75/262
f 43/71/263 5/76/264 87/75/262
f 86/84/265 87/75/262 5/76/264
s 51
f 89/83/266 87/75/267 88/85/268
f 88/85/268 87/75/267 86/84/269
s 52
f 60/58/270 65/54/271 91/51/272
f 91/51/272 65/54/271 93/191/273
s 53
f 90/45/274 7/53/275 92/55/276
f 7/53/275 83/62/277 92/55/276
f 92/55/276 83/62/277 42/59/278
f 83/62/277 85/67/279 42/59/278
s 54
f 92/55/280 91/192/281 90/45/282
f 94/190/283 90/45/282 93/48/284
f 91/192/281 93/48/284 90/45/282
